<svg xmlns="http://www.w3.org/2000/svg" width="108" height="32" viewBox="0 0 108 32" fill="none">
<path d="M3.75873 0.0112915H0.756259C0.338622 0.0112915 0 0.349931 0 0.767568V3.57814C0 3.99577 0.338622 4.33441 0.756259 4.33441H3.75873C4.17637 4.33441 4.51499 3.99577 4.51499 3.57814V0.767568C4.51499 0.349931 4.16508 0.0112915 3.75873 0.0112915Z" fill="#F75C4D"/>
<path d="M3.48789 9.52661H1.01593C0.632155 9.52661 0.327393 9.83139 0.327393 10.2152V30.7809C0.327393 31.1647 0.632155 31.4695 1.01593 31.4695H3.48789C3.87166 31.4695 4.17643 31.1647 4.17643 30.7809V10.2152C4.17643 9.84268 3.87166 9.52661 3.48789 9.52661Z" fill="#343939"/>
<path d="M15.622 9.00745C14.1997 9.00745 12.9581 9.75242 12.0325 11.1634C12.0099 11.1972 11.9874 11.2424 11.9648 11.2762H11.9535L11.8406 10.1475C11.8068 9.79758 11.5133 9.52666 11.1521 9.52666H8.79301C8.40924 9.52666 8.10449 9.83144 8.10449 10.2152V30.781C8.10449 31.1648 8.40924 31.4695 8.79301 31.4695H11.265C11.6487 31.4695 11.9535 31.1648 11.9535 30.781V15.1253C11.9535 14.4367 11.9648 13.2064 12.4614 12.5291C12.5292 12.4501 12.6195 12.3485 12.6985 12.2808C12.8001 12.2018 12.8904 12.1567 13.0033 12.1228C13.1839 12.0551 13.3757 12.0212 13.6128 12.0212C15.0011 12.0212 15.272 13.1613 15.272 15.1253V30.781C15.272 31.1648 15.5768 31.4695 15.9606 31.4695H18.4777C18.8615 31.4695 19.1662 31.1648 19.1662 30.781V14.5609C19.1662 10.4071 18.2632 9.00745 15.622 9.00745Z" fill="#343939"/>
<path d="M27.3722 17.6198C26.2434 16.3895 25.7581 15.5542 25.7581 14.8205V13.9965C25.7581 12.3937 26.1419 11.7616 27.1126 11.7616C28.2752 11.7616 28.4671 12.5066 28.4671 14.7302V15.1817C28.4671 15.5655 28.7719 15.8702 29.1556 15.8702H31.4921C31.8759 15.8702 32.1807 15.5655 32.1807 15.1817V14.8205C32.1807 10.6328 30.781 9.00745 27.2029 9.00745C23.7715 9.00745 21.9542 10.757 21.9542 14.0755V15.3397C21.9542 17.2022 22.7669 18.1954 24.0085 19.5386L27.0674 22.733C28.1398 23.8505 28.6364 24.8438 28.6364 25.8822V26.7062C28.6364 28.2752 28.3542 29.2346 26.932 29.2346C25.7355 29.2346 25.5324 28.309 25.5324 26.2208V25.1598C25.5324 24.776 25.2276 24.4713 24.8438 24.4713H22.5976C22.2138 24.4713 21.9091 24.776 21.9091 25.1598V25.95C21.9091 30.5214 23.1733 31.9888 27.1126 31.9888C30.7246 31.9888 32.4854 30.2279 32.4854 26.6159V24.8663C32.4854 23.6021 31.8759 22.3831 30.5214 20.9383L27.3722 17.6198Z" fill="#343939"/>
<path d="M41.9782 28.8847H41.8428C40.6689 28.8847 40.2738 28.3429 40.2738 26.7401V12.2808H41.854C42.2378 12.2808 42.5426 11.9761 42.5426 11.5923V10.2152C42.5426 9.83144 42.2378 9.52666 41.854 9.52666H40.2738V4.71822C40.2738 4.49247 40.1609 4.27799 39.969 4.14254C39.7771 4.01838 39.5401 3.98452 39.3257 4.07482L36.8085 5.05683C36.5489 5.15841 36.3683 5.41803 36.3683 5.70022V9.51539H35.3073C34.9235 9.51539 34.6188 9.82014 34.6188 10.2039V11.581C34.6188 11.9648 34.9235 12.2695 35.3073 12.2695H36.3683V25.9951C36.3683 30.1376 36.9666 31.9888 40.5221 31.9888C40.9849 31.9888 41.5267 31.9323 42.0911 31.8759C42.441 31.842 42.7119 31.5485 42.7119 31.1873V29.5619C42.7119 29.37 42.6329 29.1894 42.4974 29.0653C42.362 28.9411 42.1701 28.8734 41.9782 28.8847Z" fill="#343939"/>
<path d="M51.1097 9.00745C47.1139 9.00745 45.6804 10.5087 45.6466 14.7415C45.6466 14.9221 45.7143 15.1027 45.8498 15.2269C45.9739 15.351 46.1545 15.43 46.3351 15.43H48.5362C48.9199 15.43 49.2247 15.1252 49.2247 14.7415V14.5157C49.2247 12.563 49.6988 11.7616 50.8388 11.7616C52.261 11.7616 52.4981 12.7775 52.4981 15.035V17.5633C47.1817 17.7891 45.1951 19.2 45.1951 22.7669V26.5256C45.1951 30.4085 46.2674 31.9888 48.9087 31.9888C50.1954 31.9888 51.279 31.3792 52.1595 30.1715C52.1595 30.1715 52.3287 29.957 52.4868 29.6748L52.6335 30.86C52.6787 31.2099 52.9722 31.4695 53.3221 31.4695H55.6924C56.0762 31.4695 56.381 31.1648 56.381 30.781V14.9108C56.4035 10.6103 54.9587 9.00745 51.1097 9.00745ZM49.1457 26.0064V23.2071C49.1457 21.0737 49.902 20.4191 52.5094 20.2836V26.0064C52.5094 26.7739 52.5094 27.9365 52.0579 28.6251C52.0579 28.6364 52.0466 28.6364 52.0466 28.6476C52.0466 28.6476 51.8998 28.8621 51.7869 28.9411C51.6854 29.0089 51.4596 29.0992 51.3919 29.1217C51.2339 29.1669 51.0533 29.1895 50.8501 29.1895C49.4279 29.2007 49.1457 28.0268 49.1457 26.0064Z" fill="#343939"/>
<path d="M63.0517 0.0112915H60.5798C60.196 0.0112915 59.8912 0.316071 59.8912 0.699845V30.781C59.8912 31.1647 60.196 31.4695 60.5798 31.4695H63.0517C63.4355 31.4695 63.7403 31.1647 63.7403 30.781V0.699845C63.7403 0.316071 63.4355 0.0112915 63.0517 0.0112915Z" fill="#343939"/>
<path d="M71.1448 0.0112915H68.1424C67.7247 0.0112915 67.3861 0.349931 67.3861 0.767568V3.57814C67.3861 3.99577 67.7247 4.33441 68.1424 4.33441H71.1448C71.5625 4.33441 71.9011 3.99577 71.9011 3.57814V0.767568C71.9011 0.349931 71.5625 0.0112915 71.1448 0.0112915Z" fill="#F75C4D"/>
<path d="M70.874 9.52661H68.402C68.0182 9.52661 67.7135 9.83139 67.7135 10.2152V30.7809C67.7135 31.1647 68.0182 31.4695 68.402 31.4695H70.874C71.2578 31.4695 71.5625 31.1647 71.5625 30.7809V10.2152C71.5625 9.84268 71.2578 9.52661 70.874 9.52661Z" fill="#343939"/>
<path d="M89.6565 9.00739C88.3697 9.00739 87.2748 9.69592 86.2025 11.152C86.1348 11.2423 86.1009 11.3326 86.0783 11.4342C86.0445 11.4342 86.0219 11.4342 85.988 11.4455C85.7623 10.0233 84.5207 8.99609 83.0194 8.99609C81.5182 8.99609 80.4346 9.65077 79.4864 11.1181C79.4526 11.1633 79.43 11.2197 79.4187 11.2762C79.4074 11.2762 79.4074 11.2762 79.3962 11.2762L79.2833 10.1474C79.2494 9.79753 78.9559 9.52661 78.5947 9.52661H76.2356C75.8519 9.52661 75.5471 9.83139 75.5471 10.2152V30.7809C75.5471 31.1647 75.8519 31.4695 76.2356 31.4695H78.6624C79.0462 31.4695 79.351 31.1647 79.351 30.7809V15.1252C79.351 14.5608 79.3623 13.2966 79.8363 12.5742C79.8928 12.4952 80.0056 12.3598 80.1072 12.2921C80.2653 12.1792 80.412 12.1115 80.6039 12.0437C80.7055 12.0324 80.8071 12.0212 80.9199 12.0212C82.139 12.0212 82.3647 13.1048 82.3647 15.1252V30.7809C82.3647 31.1647 82.6695 31.4695 83.0533 31.4695H85.5252C85.909 31.4695 86.2138 31.1647 86.2138 30.7809V15.1252C86.2138 14.4705 86.2138 13.2853 86.6766 12.5742C86.733 12.4952 86.8459 12.3598 86.9474 12.2921C87.0942 12.1792 87.2409 12.1227 87.4328 12.055C87.5344 12.0437 87.636 12.0212 87.7376 12.0212C88.9792 12.0212 89.2275 13.1612 89.2275 15.1252V30.7809C89.2275 31.1647 89.5323 31.4695 89.9161 31.4695H92.3429C92.7266 31.4695 93.0314 31.1647 93.0314 30.7809V14.5608C93.0201 10.4071 92.1623 9.00739 89.6565 9.00739Z" fill="#343939"/>
<path d="M104.116 9.00742C103.134 9.00742 101.734 9.39118 100.628 11.1859C100.605 11.2198 100.594 11.2536 100.583 11.2762C100.583 11.2762 100.583 11.2762 100.571 11.2762V0.688554C100.571 0.30478 100.267 0 99.8828 0H97.4108C97.0271 0 96.7223 0.30478 96.7223 0.688554V30.781C96.7223 31.1647 97.0271 31.4695 97.4108 31.4695H99.7699C100.131 31.4695 100.425 31.1986 100.458 30.8487L100.504 29.6748C100.504 29.6748 100.707 29.9344 100.944 30.2505C100.944 30.2617 100.955 30.2617 100.955 30.2617C101.802 31.4018 102.863 32 104.059 32C106.734 32 107.773 30.4649 107.773 26.5369V14.4819C107.795 10.5877 106.723 9.00742 104.116 9.00742ZM103.856 25.8258C103.856 27.8236 103.596 28.975 102.242 28.975C102.073 28.975 101.915 28.9524 101.768 28.9185C101.587 28.8508 101.429 28.7605 101.328 28.7041C101.237 28.6476 101.079 28.4332 101.012 28.3542C100.583 27.6543 100.583 26.4917 100.583 25.837V15.1252C100.583 14.4028 100.583 13.0709 101.17 12.4275C101.226 12.3711 101.271 12.3034 101.294 12.2244C101.373 12.2131 101.452 12.1905 101.519 12.1566C101.711 12.0663 101.96 12.0099 102.231 12.0099C103.585 12.0099 103.845 13.1499 103.845 15.1139L103.856 25.8258Z" fill="#343939"/>
</svg>