<svg width="108" height="32" viewBox="0 0 108 32" fill="none" xmlns="http://www.w3.org/2000/svg">
<g id="Group">
<path id="Vector" d="M3.75873 0.0112305H0.756259C0.338622 0.0112305 0 0.34987 0 0.767506V3.57808C0 3.99571 0.338622 4.33435 0.756259 4.33435H3.75873C4.17637 4.33435 4.51499 3.99571 4.51499 3.57808V0.767506C4.51499 0.34987 4.16508 0.0112305 3.75873 0.0112305Z" fill="#F75C4D"/>
<path id="Vector_2" d="M3.48862 9.52661H1.01666C0.632888 9.52661 0.328125 9.83139 0.328125 10.2152V30.7809C0.328125 31.1647 0.632888 31.4695 1.01666 31.4695H3.48862C3.8724 31.4695 4.17716 31.1647 4.17716 30.7809V10.2152C4.17716 9.84268 3.8724 9.52661 3.48862 9.52661Z" fill="white"/>
<path id="Vector_3" d="M15.621 9.00732C14.1988 9.00732 12.9571 9.7523 12.0315 11.1632C12.009 11.1971 11.9864 11.2423 11.9638 11.2761H11.9525L11.8397 10.1474C11.8058 9.79746 11.5123 9.52654 11.1511 9.52654H8.79204C8.40826 9.52654 8.10352 9.83132 8.10352 10.2151V30.7809C8.10352 31.1646 8.40826 31.4694 8.79204 31.4694H11.264C11.6478 31.4694 11.9525 31.1646 11.9525 30.7809V15.1252C11.9525 14.4366 11.9638 13.2063 12.4605 12.529C12.5282 12.45 12.6185 12.3484 12.6975 12.2807C12.7991 12.2017 12.8894 12.1565 13.0023 12.1227C13.1829 12.055 13.3747 12.0211 13.6118 12.0211C15.0001 12.0211 15.271 13.1611 15.271 15.1252V30.7809C15.271 31.1646 15.5758 31.4694 15.9596 31.4694H18.4767C18.8605 31.4694 19.1652 31.1646 19.1652 30.7809V14.5608C19.1652 10.407 18.2622 9.00732 15.621 9.00732Z" fill="white"/>
<path id="Vector_4" d="M27.3713 17.6197C26.2426 16.3893 25.7572 15.5541 25.7572 14.8204V13.9964C25.7572 12.3936 26.141 11.7615 27.1117 11.7615C28.2744 11.7615 28.4662 12.5064 28.4662 14.7301V15.1816C28.4662 15.5653 28.771 15.8701 29.1548 15.8701H31.4913C31.8751 15.8701 32.1798 15.5653 32.1798 15.1816V14.8204C32.1798 10.6327 30.7802 9.00732 27.202 9.00732C23.7706 9.00732 21.9534 10.7569 21.9534 14.0754V15.3396C21.9534 17.202 22.7661 18.1953 24.0077 19.5385L27.0666 22.7329C28.1389 23.8504 28.6356 24.8437 28.6356 25.8821V26.7061C28.6356 28.275 28.3534 29.2345 26.9311 29.2345C25.7347 29.2345 25.5315 28.3089 25.5315 26.2207V25.1597C25.5315 24.7759 25.2267 24.4712 24.843 24.4712H22.5968C22.213 24.4712 21.9082 24.7759 21.9082 25.1597V25.9498C21.9082 30.5213 23.1724 31.9886 27.1117 31.9886C30.7237 31.9886 32.4846 30.2278 32.4846 26.6158V24.8662C32.4846 23.602 31.875 22.383 30.5206 20.9382L27.3713 17.6197Z" fill="white"/>
<path id="Vector_5" d="M41.9786 28.8848H41.8431C40.6692 28.8848 40.2742 28.343 40.2742 26.7402V12.2809H41.8544C42.2382 12.2809 42.5429 11.9762 42.5429 11.5924V10.2153C42.5429 9.83156 42.2382 9.52678 41.8544 9.52678H40.2742V4.71834C40.2742 4.49259 40.1613 4.27812 39.9694 4.14267C39.7775 4.0185 39.5405 3.98464 39.326 4.07494L36.8089 5.05695C36.5493 5.15854 36.3687 5.41816 36.3687 5.70034V9.51552H35.3077C34.9239 9.51552 34.6191 9.82026 34.6191 10.204V11.5811C34.6191 11.9649 34.9239 12.2697 35.3077 12.2697H36.3687V25.9952C36.3687 30.1377 36.9669 31.9889 40.5225 31.9889C40.9853 31.9889 41.5271 31.9324 42.0914 31.876C42.4414 31.8421 42.7123 31.5486 42.7123 31.1874V29.562C42.7123 29.3702 42.6333 29.1896 42.4978 29.0654C42.3624 28.9412 42.1704 28.8735 41.9786 28.8848Z" fill="white"/>
<path id="Vector_6" d="M51.1098 9.00732C47.114 9.00732 45.6805 10.5085 45.6466 14.7413C45.6466 14.9219 45.7144 15.1026 45.8498 15.2267C45.974 15.3509 46.1546 15.4299 46.3352 15.4299H48.5362C48.92 15.4299 49.2248 15.1251 49.2248 14.7413V14.5156C49.2248 12.5629 49.6988 11.7615 50.8389 11.7615C52.2611 11.7615 52.4981 12.7773 52.4981 15.0348V17.5632C47.1817 17.789 45.1951 19.1999 45.1951 22.7668V26.5255C45.1951 30.4084 46.2674 31.9886 48.9087 31.9886C50.1955 31.9886 51.2791 31.3791 52.1595 30.1713C52.1595 30.1713 52.3288 29.9569 52.4868 29.6747L52.6336 30.8599C52.6787 31.2098 52.9722 31.4694 53.3221 31.4694H55.6925C56.0763 31.4694 56.381 31.1646 56.381 30.7809V14.9107C56.4036 10.6102 54.9588 9.00732 51.1098 9.00732ZM49.1457 26.0063V23.207C49.1457 21.0736 49.902 20.419 52.5094 20.2835V26.0063C52.5094 26.7738 52.5094 27.9364 52.0579 28.625C52.0579 28.6362 52.0466 28.6362 52.0466 28.6475C52.0466 28.6475 51.8999 28.862 51.787 28.941C51.6854 29.0087 51.4597 29.099 51.3919 29.1216C51.2339 29.1668 51.0533 29.1893 50.8502 29.1893C49.4279 29.2006 49.1457 28.0267 49.1457 26.0063Z" fill="white"/>
<path id="Vector_7" d="M63.0511 0.0112305H60.5792C60.1954 0.0112305 59.8906 0.31601 59.8906 0.699784V30.7809C59.8906 31.1647 60.1954 31.4694 60.5792 31.4694H63.0511C63.4349 31.4694 63.7397 31.1647 63.7397 30.7809V0.699784C63.7397 0.31601 63.4349 0.0112305 63.0511 0.0112305Z" fill="white"/>
<path id="Vector_8" d="M71.1454 0.0112305H68.143C67.7254 0.0112305 67.3867 0.34987 67.3867 0.767506V3.57808C67.3867 3.99571 67.7254 4.33435 68.143 4.33435H71.1454C71.5631 4.33435 71.9017 3.99571 71.9017 3.57808V0.767506C71.9017 0.34987 71.5631 0.0112305 71.1454 0.0112305Z" fill="#F75C4D"/>
<path id="Vector_9" d="M70.8753 9.52686H68.4034C68.0196 9.52686 67.7148 9.83164 67.7148 10.2154V30.7812C67.7148 31.165 68.0196 31.4697 68.4034 31.4697H70.8753C71.2591 31.4697 71.5639 31.165 71.5639 30.7812V10.2154C71.5639 9.84292 71.2591 9.52686 70.8753 9.52686Z" fill="white"/>
<path id="Vector_10" d="M89.6562 9.00739C88.3694 9.00739 87.2746 9.69592 86.2023 11.152C86.1345 11.2423 86.1006 11.3326 86.0781 11.4342C86.0442 11.4342 86.0217 11.4342 85.9878 11.4455C85.762 10.0233 84.5204 8.99609 83.0192 8.99609C81.5179 8.99609 80.4343 9.65077 79.4862 11.1181C79.4523 11.1633 79.4298 11.2197 79.4185 11.2762C79.4072 11.2762 79.4072 11.2762 79.3959 11.2762L79.283 10.1474C79.2492 9.79753 78.9557 9.52661 78.5945 9.52661H76.2354C75.8516 9.52661 75.5469 9.83139 75.5469 10.2152V30.7809C75.5469 31.1647 75.8516 31.4695 76.2354 31.4695H78.6622C79.046 31.4695 79.3507 31.1647 79.3507 30.7809V15.1252C79.3507 14.5608 79.362 13.2966 79.8361 12.5742C79.8925 12.4952 80.0054 12.3598 80.107 12.2921C80.265 12.1792 80.4118 12.1115 80.6036 12.0437C80.7052 12.0324 80.8068 12.0212 80.9197 12.0212C82.1387 12.0212 82.3645 13.1048 82.3645 15.1252V30.7809C82.3645 31.1647 82.6693 31.4695 83.053 31.4695H85.525C85.9088 31.4695 86.2135 31.1647 86.2135 30.7809V15.1252C86.2135 14.4705 86.2135 13.2853 86.6763 12.5742C86.7327 12.4952 86.8456 12.3598 86.9472 12.2921C87.0939 12.1792 87.2407 12.1227 87.4326 12.055C87.5342 12.0437 87.6357 12.0212 87.7373 12.0212C88.979 12.0212 89.2273 13.1612 89.2273 15.1252V30.7809C89.2273 31.1647 89.532 31.4695 89.9158 31.4695H92.3426C92.7264 31.4695 93.0312 31.1647 93.0312 30.7809V14.5608C93.0199 10.4071 92.162 9.00739 89.6562 9.00739Z" fill="white"/>
<path id="Vector_11" d="M104.116 9.00742C103.134 9.00742 101.734 9.39118 100.628 11.1859C100.606 11.2198 100.594 11.2536 100.583 11.2762C100.583 11.2762 100.583 11.2762 100.572 11.2762V0.688554C100.572 0.30478 100.267 0 99.8832 0H97.4112C97.0274 0 96.7227 0.30478 96.7227 0.688554V30.781C96.7227 31.1647 97.0274 31.4695 97.4112 31.4695H99.7703C100.131 31.4695 100.425 31.1986 100.459 30.8487L100.504 29.6748C100.504 29.6748 100.707 29.9344 100.944 30.2505C100.944 30.2617 100.955 30.2617 100.955 30.2617C101.802 31.4018 102.863 32 104.06 32C106.735 32 107.773 30.4649 107.773 26.5369V14.4819C107.796 10.5877 106.723 9.00742 104.116 9.00742ZM103.856 25.8258C103.856 27.8236 103.597 28.975 102.242 28.975C102.073 28.975 101.915 28.9524 101.768 28.9185C101.588 28.8508 101.43 28.7605 101.328 28.7041C101.238 28.6476 101.08 28.4332 101.012 28.3542C100.583 27.6543 100.583 26.4917 100.583 25.837V15.1252C100.583 14.4028 100.583 13.0709 101.17 12.4275C101.226 12.3711 101.272 12.3034 101.294 12.2244C101.373 12.2131 101.452 12.1905 101.52 12.1566C101.712 12.0663 101.96 12.0099 102.231 12.0099C103.585 12.0099 103.845 13.1499 103.845 15.1139L103.856 25.8258Z" fill="white"/>
</g>
</svg>
